<svg xmlns="http://www.w3.org/2000/svg" viewBox="0 0 64 64" role="img" aria-label="Site logo">
  <rect width="64" height="64" fill="#000000" />
  <!-- Outer ring -->
  <circle cx="32" cy="32" r="26" fill="none" stroke="#166534" stroke-width="3.5" />
  <circle cx="32" cy="32" r="26" fill="none" stroke="#22c55e" stroke-width="1.2" opacity="0.55" />
  <!-- Two large lower leaves (lime) -->
  <path
    fill="#86efac"
    d="M32 49 Q14 42 11 30 Q9 22 17 20 Q26 23 30 35 Q31.5 42 32 47 Z"
  />
  <path
    fill="#86efac"
    d="M32 49 Q50 42 53 30 Q55 22 47 20 Q38 23 34 35 Q32.5 42 32 47 Z"
  />
  <!-- Two smaller inner leaves (forest) -->
  <path fill="#15803d" d="M32 46 L26 31 Q25 25 29 23 Q32 25 32 31 Z" />
  <path fill="#166534" d="M32 46 L38 31 Q39 25 35 23 Q32 25 32 31 Z" />
</svg>
