<svg xmlns="http://www.w3.org/2000/svg" viewBox="0 0 64 64" role="img" aria-label="Elite Agro">
  <defs>
    <linearGradient id="leafL" x1="0" y1="1" x2="1" y2="0">
      <stop offset="0%" stop-color="#9ee86f" />
      <stop offset="100%" stop-color="#5cb85c" />
    </linearGradient>
    <linearGradient id="leafR" x1="1" y1="1" x2="0" y2="0">
      <stop offset="0%" stop-color="#8fdd65" />
      <stop offset="100%" stop-color="#4a9f4f" />
    </linearGradient>
  </defs>

  <circle cx="32" cy="32" r="29" fill="#ffffff" />
  <circle cx="32" cy="32" r="29" fill="none" stroke="#43a05a" stroke-width="2" />

  <path d="M32 38 L26 26 Q25 22 28 20 Q30 22 31 26 Z" fill="#2f6b3a" />
  <path d="M32 38 L38 26 Q39 22 36 20 Q34 22 33 26 Z" fill="#256334" />

  <path d="M32 42 Q22 36 18 28 Q17 22 22 20 Q28 22 31 30 Q32 34 32 40 Z" fill="url(#leafL)" />
  <path d="M32 42 Q42 36 46 28 Q47 22 42 20 Q36 22 33 30 Q32 34 32 40 Z" fill="url(#leafR)" />

  <path d="M32 40 Q28 32 24 26" stroke="#1f5a2e" stroke-width="1.2" fill="none" stroke-linecap="round" opacity="0.65" />
  <path d="M32 40 Q36 32 40 26" stroke="#1f5a2e" stroke-width="1.2" fill="none" stroke-linecap="round" opacity="0.65" />
</svg>
