<svg xmlns="http://www.w3.org/2000/svg" viewBox="0 0 64 64" role="img" aria-label="Company">
  <!-- White field -->
  <rect width="64" height="64" rx="12" fill="#ffffff" />

  <!-- Thick dark-green ring + white interior -->
  <circle cx="32" cy="32" r="25" fill="#ffffff" stroke="#14532d" stroke-width="5" />

  <!-- Thin crescent accent, outer left -->
  <path
    d="M 11 40 A 30 30 0 0 1 13 22"
    fill="none"
    stroke="#166534"
    stroke-width="2"
    stroke-linecap="round"
  />

  <!-- Two large lime leaves (base) -->
  <path
    fill="#bef264"
    d="M32 48 Q15 41 12 30 Q10 22 18 20 Q26 23 30 34 Q31.5 41 32 46 Z"
  />
  <path
    fill="#bef264"
    d="M32 48 Q49 41 52 30 Q54 22 46 20 Q38 23 34 34 Q32.5 41 32 46 Z"
  />

  <!-- Central vertical leaf (forest green) -->
  <path
    fill="#166534"
    d="M32 46 L28 28 Q27.5 22 32 19 Q36.5 22 36 28 Z"
  />
</svg>
