<svg xmlns="http://www.w3.org/2000/svg" viewBox="0 0 400 150" role="img" aria-label="3D extrusion preview">
  <rect width="400" height="150" fill="#ececec"/>
  <g stroke="#d6d6d6" stroke-width="1.1" fill="none" opacity="0.85">
    <path d="M0 38 C80 28 160 42 240 32 S360 40 400 34"/>
    <path d="M0 72 C100 64 200 78 300 68 S380 76 400 70"/>
    <path d="M0 108 C90 100 190 114 290 104 S370 112 400 108"/>
    <path d="M48 0 C52 50 56 100 60 150"/>
    <path d="M148 0 C152 48 156 98 160 150"/>
    <path d="M248 0 C252 50 256 100 260 150"/>
    <path d="M348 0 C352 46 356 96 360 150"/>
  </g>
  <path fill="#d8d8d8" opacity="0.55" d="M12 28 L118 18 L142 82 L48 104 Z"/>
  <path fill="#d4d4d4" opacity="0.5" d="M148 32 L262 22 L286 88 L178 108 Z"/>
  <path fill="#d0d0d0" opacity="0.45" d="M228 78 L372 68 L392 118 L248 132 Z"/>
  <g opacity="0.92">
    <path fill="#c4b5fd" d="M88 98 L116 112 L102 120 L74 106 Z"/>
    <path fill="#8b5cf6" d="M74 106 L102 120 L102 92 L74 78 Z"/>
    <path fill="#7c3aed" d="M102 120 L116 112 L116 84 L102 92 Z"/>
    <path fill="#a78bfa" d="M74 78 L102 92 L116 84 L88 70 Z"/>
  </g>
  <g opacity="0.95">
    <path fill="#c4b5fd" d="M168 88 L204 106 L186 116 L150 98 Z"/>
    <path fill="#8b5cf6" d="M150 98 L186 116 L186 72 L150 54 Z"/>
    <path fill="#7c3aed" d="M186 116 L204 106 L204 62 L186 72 Z"/>
    <path fill="#a78bfa" d="M150 54 L186 72 L204 62 L168 44 Z"/>
  </g>
  <g opacity="0.98">
    <path fill="#c4b5fd" d="M252 82 L292 102 L272 114 L232 94 Z"/>
    <path fill="#8b5cf6" d="M232 94 L272 114 L272 48 L232 28 Z"/>
    <path fill="#6d28d9" d="M272 114 L292 102 L292 36 L272 48 Z"/>
    <path fill="#a78bfa" d="M232 28 L272 48 L292 36 L252 16 Z"/>
  </g>
  <g opacity="0.9">
    <path fill="#ddd6fe" d="M318 96 L342 108 L330 114 L306 102 Z"/>
    <path fill="#a78bfa" d="M306 102 L330 114 L330 78 L306 66 Z"/>
    <path fill="#8b5cf6" d="M330 114 L342 108 L342 72 L330 78 Z"/>
    <path fill="#c4b5fd" d="M306 66 L330 78 L342 72 L318 60 Z"/>
  </g>
  <rect x="368" y="8" width="18" height="18" fill="#ffffff" stroke="#bdbdbd" stroke-width="1" rx="1"/>
</svg>
