<svg xmlns="http://www.w3.org/2000/svg" viewBox="0 0 400 150" role="img" aria-label="Heat surface preview">
  <rect width="400" height="150" fill="#ececec"/>
  <g stroke="#d6d6d6" stroke-width="1.1" fill="none" opacity="0.85">
    <path d="M0 38 C80 28 160 42 240 32 S360 40 400 34"/>
    <path d="M0 72 C100 64 200 78 300 68 S380 76 400 70"/>
    <path d="M0 108 C90 100 190 114 290 104 S370 112 400 106"/>
    <path d="M48 0 C52 50 56 100 60 150"/>
    <path d="M128 0 C132 48 136 98 140 150"/>
    <path d="M208 0 C212 52 216 102 220 150"/>
    <path d="M288 0 C292 46 296 96 300 150"/>
    <path d="M368 0 C372 50 376 100 380 150"/>
  </g>
  <radialGradient id="hs-hot" cx="32%" cy="46%" r="55%">
    <stop offset="0%" stop-color="#fde047" stop-opacity="0.98"/>
    <stop offset="18%" stop-color="#f97316" stop-opacity="0.95"/>
    <stop offset="38%" stop-color="#ef4444" stop-opacity="0.9"/>
    <stop offset="58%" stop-color="#ec4899" stop-opacity="0.72"/>
    <stop offset="100%" stop-color="#22d3ee" stop-opacity="0"/>
  </radialGradient>
  <radialGradient id="hs-mid" cx="54%" cy="54%" r="48%">
    <stop offset="0%" stop-color="#a855f7" stop-opacity="0.45"/>
    <stop offset="35%" stop-color="#67e8f9" stop-opacity="0.78"/>
    <stop offset="100%" stop-color="#67e8f9" stop-opacity="0"/>
  </radialGradient>
  <radialGradient id="hs-cool-a" cx="72%" cy="44%" r="42%">
    <stop offset="0%" stop-color="#38bdf8" stop-opacity="0.68"/>
    <stop offset="100%" stop-color="#38bdf8" stop-opacity="0"/>
  </radialGradient>
  <radialGradient id="hs-cool-b" cx="86%" cy="60%" r="36%">
    <stop offset="0%" stop-color="#7dd3fc" stop-opacity="0.58"/>
    <stop offset="100%" stop-color="#7dd3fc" stop-opacity="0"/>
  </radialGradient>
  <ellipse cx="118" cy="72" rx="102" ry="60" fill="url(#hs-hot)"/>
  <ellipse cx="218" cy="80" rx="82" ry="54" fill="url(#hs-mid)"/>
  <ellipse cx="292" cy="66" rx="64" ry="44" fill="url(#hs-cool-a)"/>
  <ellipse cx="342" cy="84" rx="50" ry="36" fill="url(#hs-cool-b)"/>
  <rect x="368" y="8" width="18" height="18" fill="#ffffff" stroke="#bdbdbd" stroke-width="1" rx="1"/>
</svg>
