<svg xmlns="http://www.w3.org/2000/svg" viewBox="0 0 400 150" role="img" aria-label="Pie chart preview">
  <rect width="400" height="150" fill="#ececec"/>
  <g stroke="#d6d6d6" stroke-width="1.1" fill="none" opacity="0.85">
    <path d="M0 38 C80 28 160 42 240 32 S360 40 400 34"/>
    <path d="M0 72 C100 64 200 78 300 68 S380 76 400 70"/>
    <path d="M0 108 C90 100 190 114 290 104 S370 112 400 108"/>
    <path d="M48 0 C52 50 56 100 60 150"/>
    <path d="M148 0 C152 48 156 98 160 150"/>
    <path d="M248 0 C252 50 256 100 260 150"/>
    <path d="M348 0 C352 46 356 96 360 150"/>
  </g>
  <path fill="#d8d8d8" opacity="0.55" d="M12 28 L118 18 L142 82 L48 104 Z"/>
  <path fill="#d4d4d4" opacity="0.5" d="M148 32 L262 22 L286 88 L178 108 Z"/>
  <path fill="#d0d0d0" opacity="0.45" d="M228 78 L372 68 L392 118 L248 132 Z"/>
  <g>
    <circle cx="98" cy="58" r="15" fill="#ffffff" opacity="0.35"/>
    <path d="M98 58 L98 43 A15 15 0 0 1 111.2 66.8 Z" fill="#f28b2c"/>
    <path d="M98 58 L111.2 66.8 A15 15 0 0 1 88.8 70.2 Z" fill="#4f8fd9"/>
    <path d="M98 58 L88.8 70.2 A15 15 0 0 1 98 43 Z" fill="#8bc34a"/>
  </g>
  <g>
    <circle cx="178" cy="42" r="11" fill="#ffffff" opacity="0.35"/>
    <path d="M178 42 L178 31 A11 11 0 0 1 188.5 48.2 Z" fill="#e8788a"/>
    <path d="M178 42 L188.5 48.2 A11 11 0 0 1 172.8 51.8 Z" fill="#6eb5e8"/>
    <path d="M178 42 L172.8 51.8 A11 11 0 0 1 178 31 Z" fill="#b5d334"/>
  </g>
  <g>
    <circle cx="228" cy="92" r="19" fill="#ffffff" opacity="0.35"/>
    <path d="M228 92 L228 73 A19 19 0 0 1 245.8 100.2 Z" fill="#f28b2c"/>
    <path d="M228 92 L245.8 100.2 A19 19 0 0 1 238.2 109.8 Z" fill="#4f8fd9"/>
    <path d="M228 92 L238.2 109.8 A19 19 0 0 1 215.8 106.2 Z" fill="#8bc34a"/>
    <path d="M228 92 L215.8 106.2 A19 19 0 0 1 228 73 Z" fill="#a78bc4"/>
  </g>
  <g>
    <circle cx="318" cy="52" r="14" fill="#ffffff" opacity="0.35"/>
    <path d="M318 52 L318 38 A14 14 0 0 1 330.2 60.8 Z" fill="#4f8fd9"/>
    <path d="M318 52 L330.2 60.8 A14 14 0 0 1 312.8 63.2 Z" fill="#f28b2c"/>
    <path d="M318 52 L312.8 63.2 A14 14 0 0 1 318 38 Z" fill="#8bc34a"/>
  </g>
  <g>
    <circle cx="352" cy="108" r="12" fill="#ffffff" opacity="0.35"/>
    <path d="M352 108 L352 96 A12 12 0 0 1 362.8 114.2 Z" fill="#6eb5e8"/>
    <path d="M352 108 L362.8 114.2 A12 12 0 0 1 345.2 116.8 Z" fill="#e8788a"/>
    <path d="M352 108 L345.2 116.8 A12 12 0 0 1 352 96 Z" fill="#b5d334"/>
  </g>
  <rect x="368" y="8" width="18" height="18" fill="#ffffff" stroke="#bdbdbd" stroke-width="1" rx="1"/>
</svg>
