<svg xmlns="http://www.w3.org/2000/svg" viewBox="0 0 64 64" role="img" aria-label="Elite Agro Projects logo">
  <defs>
    <linearGradient id="ring" x1="0" y1="0" x2="1" y2="1">
      <stop offset="0%" stop-color="#0f3b2f" />
      <stop offset="100%" stop-color="#7ccf8a" />
    </linearGradient>
    <linearGradient id="leafA" x1="0" y1="0" x2="1" y2="1">
      <stop offset="0%" stop-color="#b6f08e" />
      <stop offset="100%" stop-color="#65b95a" />
    </linearGradient>
    <linearGradient id="leafB" x1="0" y1="0" x2="1" y2="1">
      <stop offset="0%" stop-color="#8edb68" />
      <stop offset="100%" stop-color="#3f8f3f" />
    </linearGradient>
  </defs>

  <circle cx="32" cy="32" r="27" fill="none" stroke="url(#ring)" stroke-width="6" />

  <path
    d="M20 39c-5-7-3-14 6-17 7-3 13 1 14 8-8-1-14 2-20 9z"
    fill="url(#leafA)"
  />
  <path
    d="M45 36c3-6 1-11-6-13-5-2-10 1-11 6 6-1 11 1 17 7z"
    fill="url(#leafB)"
  />
  <path d="M31 40c1-6 4-10 9-12" stroke="#2f6f3a" stroke-width="1.5" fill="none" stroke-linecap="round" />
  <path d="M31 40c-1-5-4-8-8-10" stroke="#4e8f54" stroke-width="1.5" fill="none" stroke-linecap="round" />
</svg>
